<svg xmlns="http://www.w3.org/2000/svg" viewBox="0 0 1200 440" width="1200" height="440" font-family="-apple-system,BlinkMacSystemFont,Segoe UI,Inter,sans-serif">
  <defs>
    <radialGradient id="bg" cx="36%" cy="20%" r="98%">
      <stop offset="0%" stop-color="#0e1430"/><stop offset="55%" stop-color="#080a16"/>
      <stop offset="100%" stop-color="#05060c"/>
    </radialGradient>
    <filter id="glow" x="-70%" y="-70%" width="240%" height="240%">
      <feGaussianBlur stdDeviation="4.5" result="b"/>
      <feMerge><feMergeNode in="b"/><feMergeNode in="SourceGraphic"/></feMerge>
    </filter>
    <linearGradient id="ink" x1="0" y1="0" x2="0" y2="1">
      <stop offset="0%" stop-color="#ffffff"/><stop offset="100%" stop-color="#c7d0ea"/>
    </linearGradient>
    <style>.lbl{fill:#8b91a7;font-size:13px}.nodes circle{filter:url(#glow)}</style>
  </defs>
  <rect width="1200" height="440" fill="url(#bg)"/>
  <g stroke-width="1.4" stroke-opacity="0.28">
    <line x1="101.3" y1="167.4" x2="95.9" y2="147.0" stroke="#4da3ff"/>
    <line x1="101.3" y1="167.4" x2="101.8" y2="90.5" stroke="#4da3ff"/>
    <line x1="216.7" y1="126.4" x2="201.7" y2="171.8" stroke="#4da3ff"/>
    <line x1="216.7" y1="126.4" x2="244.8" y2="195.2" stroke="#4da3ff"/>
    <line x1="95.9" y1="147.0" x2="101.8" y2="90.5" stroke="#4da3ff"/>
    <line x1="189.9" y1="200.5" x2="201.7" y2="171.8" stroke="#4da3ff"/>
    <line x1="189.9" y1="200.5" x2="244.8" y2="195.2" stroke="#4da3ff"/>
    <line x1="201.7" y1="171.8" x2="244.8" y2="195.2" stroke="#4da3ff"/>
    <line x1="244.8" y1="195.2" x2="259.2" y2="277.6" stroke="#4da3ff"/>
    <line x1="244.8" y1="195.2" x2="376.9" y2="237.3" stroke="#4da3ff"/>
    <line x1="294.7" y1="317.4" x2="259.2" y2="277.6" stroke="#3ddc97"/>
    <line x1="294.7" y1="317.4" x2="305.0" y2="336.7" stroke="#3ddc97"/>
    <line x1="294.7" y1="317.4" x2="282.1" y2="327.1" stroke="#3ddc97"/>
    <line x1="433.7" y1="316.7" x2="314.2" y2="361.9" stroke="#3ddc97"/>
    <line x1="433.7" y1="316.7" x2="357.0" y2="339.7" stroke="#3ddc97"/>
    <line x1="433.7" y1="316.7" x2="455.0" y2="235.5" stroke="#3ddc97"/>
    <line x1="433.7" y1="316.7" x2="615.2" y2="152.0" stroke="#3ddc97"/>
    <line x1="433.7" y1="316.7" x2="667.3" y2="294.1" stroke="#3ddc97"/>
    <line x1="259.2" y1="277.6" x2="282.1" y2="327.1" stroke="#3ddc97"/>
    <line x1="305.0" y1="336.7" x2="282.1" y2="327.1" stroke="#3ddc97"/>
    <line x1="305.0" y1="336.7" x2="314.2" y2="361.9" stroke="#3ddc97"/>
    <line x1="305.0" y1="336.7" x2="357.0" y2="339.7" stroke="#3ddc97"/>
    <line x1="282.1" y1="327.1" x2="314.2" y2="361.9" stroke="#3ddc97"/>
    <line x1="314.2" y1="361.9" x2="357.0" y2="339.7" stroke="#3ddc97"/>
    <line x1="376.9" y1="237.3" x2="396.2" y2="197.1" stroke="#ff9f43"/>
    <line x1="376.9" y1="237.3" x2="393.4" y2="205.1" stroke="#ff9f43"/>
    <line x1="396.2" y1="197.1" x2="393.4" y2="205.1" stroke="#ff9f43"/>
    <line x1="396.2" y1="197.1" x2="429.5" y2="214.8" stroke="#ff9f43"/>
    <line x1="393.4" y1="205.1" x2="429.5" y2="214.8" stroke="#ff9f43"/>
    <line x1="393.4" y1="205.1" x2="455.0" y2="235.5" stroke="#ff9f43"/>
    <line x1="429.5" y1="214.8" x2="513.8" y2="144.1" stroke="#ff9f43"/>
    <line x1="429.5" y1="214.8" x2="455.0" y2="235.5" stroke="#ff9f43"/>
    <line x1="641.6" y1="202.8" x2="513.8" y2="144.1" stroke="#ff9f43"/>
    <line x1="641.6" y1="202.8" x2="455.0" y2="235.5" stroke="#ff9f43"/>
    <line x1="641.6" y1="202.8" x2="615.2" y2="152.0" stroke="#ff9f43"/>
    <line x1="641.6" y1="202.8" x2="667.3" y2="294.1" stroke="#ff9f43"/>
    <line x1="513.8" y1="144.1" x2="455.0" y2="235.5" stroke="#ff9f43"/>
    <line x1="615.2" y1="152.0" x2="625.4" y2="88.7" stroke="#c792ea"/>
    <line x1="615.2" y1="152.0" x2="655.7" y2="135.1" stroke="#c792ea"/>
    <line x1="615.2" y1="152.0" x2="667.3" y2="294.1" stroke="#c792ea"/>
    <line x1="625.4" y1="88.7" x2="649.3" y2="97.6" stroke="#c792ea"/>
    <line x1="625.4" y1="88.7" x2="669.5" y2="107.3" stroke="#c792ea"/>
    <line x1="649.3" y1="97.6" x2="655.7" y2="135.1" stroke="#c792ea"/>
    <line x1="649.3" y1="97.6" x2="669.5" y2="107.3" stroke="#c792ea"/>
    <line x1="717.3" y1="111.8" x2="655.7" y2="135.1" stroke="#c792ea"/>
    <line x1="717.3" y1="111.8" x2="669.5" y2="107.3" stroke="#c792ea"/>
    <line x1="655.7" y1="135.1" x2="669.5" y2="107.3" stroke="#c792ea"/>
    <line x1="711.9" y1="324.3" x2="725.7" y2="358.7" stroke="#ffd23f"/>
    <line x1="711.9" y1="324.3" x2="667.3" y2="294.1" stroke="#ffd23f"/>
    <line x1="711.9" y1="324.3" x2="699.9" y2="351.5" stroke="#ffd23f"/>
    <line x1="711.9" y1="324.3" x2="745.4" y2="312.7" stroke="#ffd23f"/>
    <line x1="711.9" y1="324.3" x2="688.8" y2="353.4" stroke="#ffd23f"/>
    <line x1="725.7" y1="358.7" x2="699.9" y2="351.5" stroke="#ffd23f"/>
    <line x1="725.7" y1="358.7" x2="745.4" y2="312.7" stroke="#ffd23f"/>
    <line x1="667.3" y1="294.1" x2="688.8" y2="353.4" stroke="#ffd23f"/>
    <line x1="699.9" y1="351.5" x2="688.8" y2="353.4" stroke="#ffd23f"/>
  </g>
  <g class="nodes">
    <circle cx="101.3" cy="167.4" r="6.8" fill="#4da3ff"/>
    <circle cx="216.7" cy="126.4" r="6.8" fill="#4da3ff"/>
    <circle cx="95.9" cy="147.0" r="6.8" fill="#4da3ff"/>
    <circle cx="189.9" cy="200.5" r="6.8" fill="#4da3ff"/>
    <circle cx="101.8" cy="90.5" r="6.8" fill="#4da3ff"/>
    <circle cx="201.7" cy="171.8" r="8.2" fill="#4da3ff"/>
    <circle cx="244.8" cy="195.2" r="11.0" fill="#4da3ff"/>
    <circle cx="294.7" cy="317.4" r="8.2" fill="#3ddc97"/>
    <circle cx="433.7" cy="316.7" r="11.0" fill="#3ddc97"/>
    <circle cx="259.2" cy="277.6" r="8.2" fill="#3ddc97"/>
    <circle cx="305.0" cy="336.7" r="9.6" fill="#3ddc97"/>
    <circle cx="282.1" cy="327.1" r="9.6" fill="#3ddc97"/>
    <circle cx="314.2" cy="361.9" r="9.6" fill="#3ddc97"/>
    <circle cx="357.0" cy="339.7" r="8.2" fill="#3ddc97"/>
    <circle cx="376.9" cy="237.3" r="8.2" fill="#ff9f43"/>
    <circle cx="396.2" cy="197.1" r="8.2" fill="#ff9f43"/>
    <circle cx="393.4" cy="205.1" r="9.6" fill="#ff9f43"/>
    <circle cx="429.5" cy="214.8" r="9.6" fill="#ff9f43"/>
    <circle cx="641.6" cy="202.8" r="9.6" fill="#ff9f43"/>
    <circle cx="513.8" cy="144.1" r="8.2" fill="#ff9f43"/>
    <circle cx="455.0" cy="235.5" r="11.0" fill="#ff9f43"/>
    <circle cx="615.2" cy="152.0" r="11.0" fill="#c792ea"/>
    <circle cx="625.4" cy="88.7" r="8.2" fill="#c792ea"/>
    <circle cx="649.3" cy="97.6" r="8.2" fill="#c792ea"/>
    <circle cx="717.3" cy="111.8" r="6.8" fill="#c792ea"/>
    <circle cx="655.7" cy="135.1" r="9.6" fill="#c792ea"/>
    <circle cx="669.5" cy="107.3" r="9.6" fill="#c792ea"/>
    <circle cx="711.9" cy="324.3" r="11.0" fill="#ffd23f"/>
    <circle cx="725.7" cy="358.7" r="8.2" fill="#ffd23f"/>
    <circle cx="667.3" cy="294.1" r="11.0" fill="#ffd23f"/>
    <circle cx="699.9" cy="351.5" r="8.2" fill="#ffd23f"/>
    <circle cx="745.4" cy="312.7" r="6.8" fill="#ffd23f"/>
    <circle cx="688.8" cy="353.4" r="8.2" fill="#ffd23f"/>
  </g>
  <g text-anchor="end">
    <text x="1150" y="200" fill="url(#ink)" font-size="92" font-weight="800" letter-spacing="-3">engram</text>
    <text x="1150" y="244" fill="#aeb6cf" font-size="20" font-weight="500">A creator&#8217;s mind,</text>
    <text x="1150" y="272" fill="#aeb6cf" font-size="20" font-weight="500">as a queryable graph.</text>
    <text x="1150" y="316" fill="#5c6480" font-size="14" letter-spacing="2" font-weight="600">ATOMS &#183; EDGES &#183; CITATIONS</text>
  </g>
  <g class="lbl">
    <circle cx="72" cy="412" r="5" fill="#4da3ff"/><text x="86" y="416">philosophy</text>
    <circle cx="208" cy="412" r="5" fill="#3ddc97"/><text x="222" y="416">methods</text>
    <circle cx="320" cy="412" r="5" fill="#ff9f43"/><text x="334" y="416">tools</text>
    <circle cx="408" cy="412" r="5" fill="#c792ea"/><text x="422" y="416">audits</text>
    <circle cx="500" cy="412" r="5" fill="#ffd23f"/><text x="514" y="416">results</text>
  </g>
</svg>
